<svg xmlns="http://www.w3.org/2000/svg" xmlns:xlink="http://www.w3.org/1999/xlink" version="1.1" width="256" height="256" viewBox="0 0 256 256" xml:space="preserve">

<defs>
</defs>
<g style="stroke: none; stroke-width: 0; stroke-dasharray: none; stroke-linecap: butt; stroke-linejoin: miter; stroke-miterlimit: 10; fill: none; fill-rule: nonzero; opacity: 1;" transform="translate(1.4065934065934016 1.4065934065934016) scale(2.81 2.81)" >
	<path d="M 47.286 59.801 L 30.199 42.715 c -4.37 -4.37 -4.37 -11.455 0 -15.825 l 0 0 c 2.596 -2.596 2.86 -6.715 0.618 -9.621 L 22.844 6.934 c -3.304 -4.283 -9.62 -4.689 -13.445 -0.864 l 0 0 c -12.532 12.532 -12.532 32.85 0 45.382 l 29.149 29.149 c 12.532 12.532 32.85 12.532 45.382 0 l 0 0 c 3.825 -3.825 3.42 -10.14 -0.864 -13.445 l -10.335 -7.973 c -2.906 -2.242 -7.026 -1.978 -9.621 0.618 l 0 0 C 58.74 64.171 51.655 64.171 47.286 59.801 z" style="stroke: none; stroke-width: 1; stroke-dasharray: none; stroke-linecap: butt; stroke-linejoin: miter; stroke-miterlimit: 10; fill: rgb(112,232,56); fill-rule: nonzero; opacity: 1;" transform=" matrix(1 0 0 1 0 0) " stroke-linecap="round" />
	<path d="M 86.557 50.164 c -1.901 0 -3.443 -1.542 -3.443 -3.443 c 0 -21.965 -17.87 -39.836 -39.836 -39.836 c -1.901 0 -3.443 -1.541 -3.443 -3.443 S 41.377 0 43.279 0 C 69.041 0 90 20.959 90 46.721 C 90 48.622 88.458 50.164 86.557 50.164 z" style="stroke: none; stroke-width: 1; stroke-dasharray: none; stroke-linecap: butt; stroke-linejoin: miter; stroke-miterlimit: 10; fill: rgb(112,232,56); fill-rule: nonzero; opacity: 1;" transform=" matrix(1 0 0 1 0 0) " stroke-linecap="round" />
	<path d="M 71.699 50.164 c -1.901 0 -3.443 -1.542 -3.443 -3.443 c 0 -13.772 -11.205 -24.977 -24.977 -24.977 c -1.901 0 -3.443 -1.541 -3.443 -3.443 c 0 -1.901 1.541 -3.443 3.443 -3.443 c 17.569 0 31.863 14.294 31.863 31.863 C 75.141 48.622 73.6 50.164 71.699 50.164 z" style="stroke: none; stroke-width: 1; stroke-dasharray: none; stroke-linecap: butt; stroke-linejoin: miter; stroke-miterlimit: 10; fill: rgb(112,232,56); fill-rule: nonzero; opacity: 1;" transform=" matrix(1 0 0 1 0 0) " stroke-linecap="round" />
</g>
</svg>